<?xml version="1.0" encoding="UTF-8" standalone="no"?>
<!DOCTYPE svg PUBLIC "-//W3C//DTD SVG 1.1//EN" "http://www.w3.org/Graphics/SVG/1.1/DTD/svg11.dtd">
<svg width="100%" height="100%" viewBox="0 0 50 50" version="1.1" xmlns="http://www.w3.org/2000/svg" xmlns:xlink="http://www.w3.org/1999/xlink" xml:space="preserve" xmlns:serif="http://www.serif.com/" style="fill-rule:evenodd;clip-rule:evenodd;stroke-linejoin:round;stroke-miterlimit:2;">
    <g transform="matrix(2.31736,0,0,2.24404,-4.16472,-28.306)">
        <g id="Layer1">
            <g>
                <g transform="matrix(1,0,0,1,-3.41297,1.27986)">
                    <path d="M26.109,21.217L26.109,23.719C26.109,24.41 25.566,24.97 24.898,24.97L7.099,24.97C6.43,24.97 5.887,24.41 5.887,23.719L5.887,21.217C5.887,20.526 6.43,19.966 7.099,19.966L24.898,19.966C25.566,19.966 26.109,20.526 26.109,21.217Z" style="fill:rgb(238,45,135);"/>
                </g>
                <g transform="matrix(6.12323e-17,1,-1,6.12323e-17,35.0534,7.74969)">
                    <path d="M26.109,21.217L26.109,23.719C26.109,24.41 25.53,24.97 24.817,24.97L7.179,24.97C6.466,24.97 5.887,24.41 5.887,23.719L5.887,21.217C5.887,20.526 6.466,19.966 7.179,19.966L24.817,19.966C25.53,19.966 26.109,20.526 26.109,21.217Z" style="fill:rgb(238,45,135);"/>
                </g>
            </g>
        </g>
    </g>
</svg>
