<?xml version="1.0" encoding="UTF-8" standalone="no"?>
<!DOCTYPE svg PUBLIC "-//W3C//DTD SVG 1.1//EN" "http://www.w3.org/Graphics/SVG/1.1/DTD/svg11.dtd">
<svg width="100%" height="100%" viewBox="0 0 50 50" version="1.1" xmlns="http://www.w3.org/2000/svg" xmlns:xlink="http://www.w3.org/1999/xlink" xml:space="preserve" xmlns:serif="http://www.serif.com/" style="fill-rule:evenodd;clip-rule:evenodd;stroke-linejoin:round;stroke-miterlimit:2;">
    <g transform="matrix(0.580902,0,0,0.4167,-4.0451,-2.06794)">
        <g transform="matrix(1,0,0,1,1.24309,-2.84456)">
            <path d="M87.707,21.478L87.707,30.18C87.707,32.581 86.309,34.53 84.586,34.53L12.928,34.53C11.205,34.53 9.807,32.581 9.807,30.18L9.807,21.478C9.807,19.077 11.205,17.127 12.928,17.127L84.586,17.127C86.309,17.127 87.707,19.077 87.707,21.478Z" style="fill:white;"/>
        </g>
        <g transform="matrix(1,0,0,1,1.24309,39.1291)">
            <path d="M87.707,21.478L87.707,30.18C87.707,32.581 86.309,34.53 84.586,34.53L12.928,34.53C11.205,34.53 9.807,32.581 9.807,30.18L9.807,21.478C9.807,19.077 11.205,17.127 12.928,17.127L84.586,17.127C86.309,17.127 87.707,19.077 87.707,21.478Z" style="fill:white;"/>
        </g>
        <g transform="matrix(1,0,0,1,1.24309,81.1027)">
            <path d="M87.707,21.478L87.707,30.18C87.707,32.581 86.309,34.53 84.586,34.53L12.928,34.53C11.205,34.53 9.807,32.581 9.807,30.18L9.807,21.478C9.807,19.077 11.205,17.127 12.928,17.127L84.586,17.127C86.309,17.127 87.707,19.077 87.707,21.478Z" style="fill:white;"/>
        </g>
    </g>
</svg>
